<svg height="16" viewBox="0 0 16 16" width="16" xmlns="http://www.w3.org/2000/svg"><path d="m6.879 9.934c-.208 0-.416-.079-.575-.238-1.486-1.486-1.486-3.905 0-5.392l3-3c.72-.72 1.678-1.117 2.696-1.117s1.976.397 2.696 1.117c1.486 1.487 1.486 3.905 0 5.392l-1.371 1.371c-.317.317-.832.317-1.149 0s-.317-.832 0-1.149l1.371-1.371c.853-.853.853-2.241 0-3.094-.413-.413-.963-.641-1.547-.641s-1.134.228-1.547.641l-3 3c-.853.853-.853 2.241 0 3.094.317.317.317.832 0 1.149-.159.159-.367.238-.575.238z"/><path d="m4 15.813c-1.018 0-1.976-.397-2.696-1.117-1.486-1.486-1.486-3.905 0-5.392l1.371-1.371c.317-.317.832-.317 1.149 0s.317.832 0 1.149l-1.371 1.371c-.853.853-.853 2.241 0 3.094.413.413.962.641 1.547.641s1.134-.228 1.547-.641l3-3c.853-.853.853-2.241 0-3.094-.317-.317-.317-.832 0-1.149s.832-.317 1.149 0c1.486 1.486 1.486 3.905 0 5.392l-3 3c-.72.72-1.678 1.117-2.696 1.117z"/></svg>